<svg width="22" height="22" viewBox="0 0 22 22" fill="none" xmlns="http://www.w3.org/2000/svg">
<path d="M4.00436 5.41662L0.761719 2.17398L2.17593 0.759766L5.41857 4.00241H20.6603C21.2126 4.00241 21.6603 4.45012 21.6603 5.00241C21.6603 5.09973 21.6461 5.19653 21.6182 5.28975L19.2182 13.2898C19.0913 13.7127 18.7019 14.0024 18.2603 14.0024H6.00436V16.0024H17.0044V18.0024H5.00436C4.45207 18.0024 4.00436 17.5547 4.00436 17.0024V5.41662ZM5.50436 22.0024C4.67593 22.0024 4.00436 21.3308 4.00436 20.5024C4.00436 19.674 4.67593 19.0024 5.50436 19.0024C6.33279 19.0024 7.00436 19.674 7.00436 20.5024C7.00436 21.3308 6.33279 22.0024 5.50436 22.0024ZM17.5044 22.0024C16.6759 22.0024 16.0044 21.3308 16.0044 20.5024C16.0044 19.674 16.6759 19.0024 17.5044 19.0024C18.3328 19.0024 19.0044 19.674 19.0044 20.5024C19.0044 21.3308 18.3328 22.0024 17.5044 22.0024Z" fill="#1E9658"/>
</svg>
