<svg width="22" height="18" viewBox="0 0 22 18" fill="none" xmlns="http://www.w3.org/2000/svg">
<path d="M21.2125 2.65605C20.4491 2.99375 19.6395 3.21555 18.8106 3.31411C19.6839 2.79132 20.3374 1.9689 20.6493 1.00005C19.8287 1.48761 18.9305 1.83077 17.9938 2.01461C17.2031 1.17106 16.098 0.693029 14.9418 0.694339C12.6326 0.694339 10.7597 2.56661 10.7597 4.87683C10.7597 5.20458 10.7973 5.52242 10.8676 5.82909C7.39048 5.65404 4.31008 3.99005 2.24678 1.45941C1.87529 2.09767 1.68006 2.82318 1.68105 3.56167C1.68105 5.01259 2.41961 6.29324 3.5415 7.043C2.87738 7.022 2.22789 6.84264 1.64719 6.51973C1.64655 6.5373 1.64654 6.55487 1.64654 6.57148C1.64654 8.5984 3.0882 10.2892 5.002 10.6731C4.64281 10.7703 4.27233 10.8194 3.90022 10.8191C3.62997 10.8191 3.36772 10.7942 3.1128 10.7453C3.64532 12.4065 5.18886 13.6159 7.0196 13.6491C5.53813 14.8118 3.70869 15.4426 1.82543 15.4399C1.49212 15.4402 1.15909 15.4205 0.828125 15.3811C2.74004 16.6102 4.96552 17.2625 7.23842 17.2601C14.9316 17.2601 19.138 10.8875 19.138 5.36111C19.138 5.1803 19.1336 4.99886 19.1256 4.81997C19.9443 4.22845 20.651 3.49567 21.2125 2.65605Z" fill="#1E1E1E" fill-opacity="0.6"/>
</svg>
